<?xml version="1.0" standalone="no"?>
<!DOCTYPE svg PUBLIC "-//W3C//DTD SVG 20010904//EN"
 "http://www.w3.org/TR/2001/REC-SVG-20010904/DTD/svg10.dtd">
<svg version="1.0" xmlns="http://www.w3.org/2000/svg"
 width="6086.000000pt" height="605.000000pt" viewBox="0 0 6086.000000 605.000000"
 preserveAspectRatio="xMidYMid meet">

<g transform="translate(0.000000,605.000000) scale(0.100000,-0.100000)"
fill="#000000" stroke="none">
<path d="M2485 6014 c-544 -62 -1024 -257 -1437 -586 -639 -508 -1015 -1253
-1044 -2073 -24 -650 194 -1300 611 -1820 405 -506 1022 -871 1666 -985 152
-27 555 -38 772 -21 592 47 1203 338 1658 791 434 432 720 1021 789 1628 17
145 8 613 -15 752 -89 564 -346 1074 -750 1489 -225 232 -447 395 -734 540
-277 140 -549 226 -856 271 -188 28 -485 34 -660 14z m372 -1284 c17 -10 38
-29 45 -42 10 -18 13 -164 16 -655 l4 -632 627 -3 c449 -3 634 -7 653 -15 85
-37 88 -191 5 -224 -24 -10 -184 -14 -664 -17 l-632 -3 -3 -672 c-2 -505 -6
-677 -15 -693 -42 -73 -183 -64 -215 14 -8 19 -13 229 -16 689 l-4 662 -662 3
c-735 3 -705 1 -739 71 -25 50 -16 105 23 142 42 40 102 44 783 44 l597 1 0
630 0 631 23 30 c43 60 114 76 174 39z"/>
<path d="M22475 5527 c-110 -37 -201 -112 -245 -202 -22 -43 -25 -64 -25 -150
0 -90 3 -105 28 -154 35 -66 108 -138 170 -169 103 -51 244 -52 352 -1 60 28
154 119 179 173 10 21 23 68 29 103 26 150 -67 310 -221 380 -67 31 -203 41
-267 20z"/>
<path d="M53709 5526 c-67 -18 -130 -58 -187 -121 -63 -69 -87 -133 -87 -236
0 -65 5 -85 33 -141 120 -243 446 -290 636 -92 63 66 89 124 94 216 8 130 -38
227 -144 309 -92 71 -229 97 -345 65z"/>
<path d="M7820 3280 l0 -2090 1325 0 1325 0 0 270 0 270 -1010 0 -1010 0 0
640 0 640 930 0 930 0 0 270 0 270 -930 0 -930 0 0 640 0 640 1000 0 1000 0 0
270 0 270 -1315 0 -1315 0 0 -2090z"/>
<path d="M20970 3280 l0 -2090 305 0 305 0 0 2090 0 2090 -305 0 -305 0 0
-2090z"/>
<path d="M30160 3280 l0 -2090 300 0 300 0 0 1515 c0 1475 0 1515 19 1515 15
0 40 -51 128 -267 60 -148 339 -829 619 -1516 l509 -1247 249 2 250 3 616
1510 c515 1261 620 1510 636 1510 19 0 19 -33 22 -1512 l2 -1513 300 0 300 0
0 2090 0 2090 -386 -2 -387 -3 -593 -1450 c-327 -797 -626 -1528 -665 -1622
-67 -162 -73 -173 -98 -173 -25 0 -45 47 -691 1625 l-665 1625 -382 0 -383 0
0 -2090z"/>
<path d="M60240 4595 c0 -895 8 -839 -97 -682 -128 190 -228 284 -388 361
-109 54 -184 73 -338 87 -524 48 -990 -212 -1235 -690 -136 -264 -193 -538
-194 -921 0 -215 9 -316 43 -490 119 -601 510 -1024 1029 -1114 183 -32 374
-28 529 10 129 32 280 116 385 214 50 47 184 218 211 270 12 23 22 30 45 30
l30 0 0 -240 0 -240 295 0 295 0 0 2090 0 2090 -305 0 -305 0 0 -775z m-600
-770 c246 -60 447 -266 540 -555 54 -170 64 -249 64 -515 0 -221 -2 -262 -22
-352 -71 -326 -204 -541 -410 -662 -134 -79 -297 -110 -471 -91 -390 43 -639
331 -722 835 -20 120 -17 445 5 570 80 451 318 729 671 785 81 12 265 4 345
-15z"/>
<path d="M23790 4705 l0 -375 -230 0 -230 0 0 -245 0 -245 228 -2 227 -3 5
-1020 5 -1020 23 -75 c120 -389 498 -610 978 -571 102 9 257 40 288 58 11 6 2
58 -40 252 -29 134 -55 246 -58 248 -2 2 -30 0 -62 -6 -32 -6 -99 -11 -150
-11 -160 0 -262 46 -321 147 -53 91 -53 85 -53 1081 l0 922 320 0 320 0 0 245
0 245 -320 0 -320 0 0 375 0 375 -305 0 -305 0 0 -375z"/>
<path d="M41460 4705 l0 -375 -230 0 -230 0 0 -245 0 -245 230 0 230 0 0 -977
c0 -617 4 -1001 10 -1041 16 -95 55 -210 97 -281 46 -78 156 -192 237 -245
170 -112 422 -168 664 -147 110 10 288 46 296 60 5 8 -98 488 -106 497 -3 3
-36 0 -73 -7 -88 -15 -255 -6 -319 17 -54 19 -124 81 -151 134 -43 84 -45 119
-45 1078 l0 912 320 0 320 0 0 245 0 245 -320 0 -320 0 0 375 0 375 -305 0
-305 0 0 -375z"/>
<path d="M12148 4360 c-422 -48 -762 -284 -972 -674 -229 -424 -270 -1134 -95
-1659 35 -104 133 -297 199 -389 72 -100 216 -245 309 -307 137 -93 294 -156
464 -187 110 -20 351 -22 447 -5 270 49 467 189 641 454 34 50 58 77 70 77 18
0 19 -25 19 -830 l0 -830 305 0 305 0 0 2160 0 2160 -295 0 -295 0 0 -255 0
-255 -28 0 c-25 0 -37 13 -97 103 -164 244 -370 387 -616 426 -94 15 -275 21
-361 11z m422 -524 c344 -63 559 -316 647 -761 26 -132 25 -501 -1 -640 -79
-422 -282 -684 -593 -766 -113 -30 -298 -30 -408 0 -221 61 -380 199 -490 426
-82 168 -123 354 -132 592 -21 569 198 1005 564 1122 128 40 282 51 413 27z"/>
<path d="M18904 4360 c-516 -50 -889 -281 -1075 -665 -27 -57 -49 -109 -49
-117 0 -10 77 -31 278 -76 152 -34 280 -62 284 -62 4 0 22 28 40 63 21 39 65
95 123 153 73 74 106 98 175 132 121 60 182 73 355 79 176 6 259 -8 370 -61
161 -76 251 -223 270 -443 8 -92 -4 -148 -41 -193 -57 -67 -147 -90 -534 -135
-346 -40 -483 -62 -656 -104 -412 -101 -653 -297 -736 -600 -29 -104 -32 -399
-5 -505 66 -262 231 -467 475 -590 80 -41 216 -82 331 -101 152 -26 420 -17
552 18 114 30 224 79 318 141 82 55 204 181 252 259 19 31 40 57 47 57 9 0 12
-49 12 -210 l0 -210 300 0 301 0 -4 1143 c-4 1238 -1 1184 -58 1357 -59 179
-190 354 -344 460 -78 54 -248 129 -348 155 -198 50 -453 72 -633 55z m774
-1940 c-4 -200 -7 -233 -27 -295 -39 -119 -89 -203 -171 -286 -169 -170 -358
-237 -652 -227 -121 4 -155 9 -223 32 -149 51 -235 118 -288 225 -31 63 -32
70 -32 191 0 117 2 129 29 188 53 115 178 204 362 257 94 27 172 41 459 81
290 40 462 79 519 120 20 14 21 13 24 -23 2 -21 2 -139 0 -263z"/>
<path d="M36229 4360 c-430 -42 -762 -206 -969 -482 -57 -75 -142 -233 -155
-288 l-6 -25 278 -63 c153 -34 281 -62 285 -62 4 0 22 28 40 63 21 39 65 95
123 153 73 74 106 98 175 132 121 60 182 73 355 79 177 6 259 -8 372 -62 160
-75 249 -222 268 -442 8 -92 -4 -148 -41 -193 -57 -67 -147 -90 -539 -135
-554 -65 -786 -119 -1004 -236 -202 -108 -340 -281 -388 -486 -27 -118 -24
-398 6 -508 98 -362 383 -601 800 -670 152 -26 420 -17 552 18 114 30 224 79
318 141 82 55 204 181 252 259 19 31 40 57 47 57 9 0 12 -49 12 -210 l0 -210
300 0 301 0 -4 1143 c-4 1238 -1 1184 -58 1357 -59 179 -190 354 -344 460 -78
54 -248 129 -348 155 -196 49 -453 72 -628 55z m769 -1940 c-4 -200 -7 -233
-27 -295 -39 -119 -89 -203 -171 -286 -169 -170 -358 -237 -652 -227 -121 4
-155 9 -223 32 -149 51 -235 118 -288 225 -31 63 -32 70 -32 191 0 117 2 129
29 188 53 115 178 204 362 257 94 27 172 41 459 81 290 40 462 79 519 120 20
14 21 13 24 -23 2 -21 2 -139 0 -263z"/>
<path d="M39290 4360 c-516 -49 -913 -320 -1016 -695 -24 -87 -30 -320 -11
-412 52 -246 202 -430 453 -556 126 -63 271 -106 635 -187 450 -100 550 -137
645 -242 59 -66 79 -120 79 -218 0 -76 -3 -92 -33 -152 -40 -82 -116 -153
-216 -202 -87 -42 -161 -62 -291 -77 -290 -32 -558 54 -678 219 -43 58 -92
154 -102 199 -3 18 -10 35 -14 37 -3 2 -135 -15 -291 -40 -157 -24 -288 -44
-292 -44 -14 0 45 -190 86 -275 152 -311 434 -496 871 -571 152 -27 481 -24
639 5 535 96 891 412 946 839 33 259 -25 454 -183 619 -183 190 -349 262 -897
388 -360 83 -447 109 -553 162 -91 45 -141 92 -178 168 -29 59 -31 70 -27 152
6 154 73 245 241 328 114 55 209 75 365 75 183 0 317 -42 439 -138 55 -44 140
-163 168 -236 15 -38 21 -45 39 -41 11 3 133 25 269 49 136 24 251 46 254 50
4 3 -1 32 -11 64 -99 315 -359 576 -671 672 -170 52 -466 78 -665 60z"/>
<path d="M44380 4360 c-456 -48 -814 -271 -1050 -655 -244 -397 -314 -1014
-174 -1532 131 -488 470 -848 924 -983 164 -48 292 -64 510 -64 215 1 352 20
510 70 373 117 653 376 766 707 12 37 21 67 18 67 -2 0 -128 23 -280 50 -152
27 -280 50 -284 50 -5 0 -28 -37 -52 -82 -62 -120 -155 -211 -279 -272 -133
-65 -188 -78 -370 -83 -122 -4 -175 -2 -239 11 -349 71 -587 317 -658 682 -11
54 -23 132 -26 171 l-6 73 1117 2 1118 3 -2 214 c-4 394 -52 622 -188 890
-105 209 -258 371 -476 503 -220 133 -588 208 -879 178z m337 -516 c149 -31
275 -99 380 -206 136 -140 209 -309 229 -530 l6 -78 -820 0 -820 0 5 48 c19
186 106 382 232 524 105 118 292 221 449 248 83 14 259 11 339 -6z"/>
<path d="M47705 4353 c-264 -56 -490 -236 -585 -466 -17 -40 -29 -57 -42 -57
-17 0 -18 15 -18 250 l0 250 -292 -2 -293 -3 -3 -1567 -2 -1568 305 0 305 0 0
968 c0 547 5 999 10 1040 21 159 84 286 202 404 61 61 96 86 170 122 123 60
188 77 334 83 108 5 194 -1 322 -24 l32 -5 0 290 0 289 -46 7 c-85 11 -326 5
-399 -11z"/>
<path d="M49945 4364 c-254 -30 -414 -97 -563 -238 -69 -65 -113 -126 -167
-229 -71 -137 -74 -130 -77 170 l-3 258 -290 0 -290 0 -3 -1567 -2 -1568 305
0 305 0 0 989 c0 654 4 1016 11 1067 39 280 233 510 484 574 265 68 545 -42
659 -259 68 -131 66 -78 66 -1283 l0 -1088 305 0 304 0 4 1072 c3 1205 -3
1113 80 1272 108 208 317 317 582 303 225 -11 410 -117 490 -280 66 -135 65
-112 65 -1298 l0 -1069 305 0 305 0 0 1113 c0 1145 -2 1206 -41 1366 -55 222
-159 384 -328 513 -184 139 -446 205 -714 179 -262 -26 -468 -115 -635 -275
-61 -58 -173 -211 -187 -255 -12 -38 -34 -22 -71 52 -115 227 -300 385 -525
446 -111 31 -276 46 -374 35z"/>
<path d="M56211 4359 c-175 -19 -346 -81 -476 -174 -80 -57 -192 -178 -236
-255 -19 -33 -42 -74 -51 -90 -10 -17 -24 -30 -33 -30 -13 0 -15 37 -17 258
l-3 257 -290 0 -290 0 -3 -1567 -2 -1568 305 0 304 0 3 1012 c3 1010 4 1013
26 1093 86 311 292 495 597 536 222 29 426 -27 564 -156 75 -70 122 -140 158
-233 52 -138 52 -139 53 -1234 l0 -1018 305 0 306 0 -4 1123 c-3 1103 -3 1124
-24 1215 -81 350 -235 571 -496 712 -126 68 -243 102 -416 119 -116 12 -159
12 -280 0z"/>
<path d="M14534 4317 c-3 -8 -3 -504 -1 -1103 3 -1188 1 -1149 62 -1359 65
-222 207 -426 382 -546 221 -153 583 -205 888 -128 101 25 241 93 325 157 116
88 239 235 296 355 10 20 24 37 31 37 10 0 13 -54 13 -270 l0 -270 305 0 305
0 -2 1568 -3 1567 -305 0 -305 0 -5 -1015 -5 -1015 -23 -70 c-49 -146 -128
-264 -233 -351 -279 -230 -689 -231 -917 -2 -110 109 -170 237 -191 408 -7 54
-11 434 -11 1067 l0 983 -300 0 c-242 0 -302 -3 -306 -13z"/>
<path d="M22277 4323 c-4 -3 -7 -710 -7 -1570 l0 -1563 305 0 305 0 0 1570 0
1570 -298 0 c-164 0 -302 -3 -305 -7z"/>
<path d="M25345 4313 c3 -10 262 -727 575 -1593 l569 -1575 -45 -125 c-100
-275 -173 -383 -306 -451 -75 -38 -241 -42 -381 -8 -26 6 -50 9 -53 7 -5 -5
-144 -477 -144 -489 0 -12 86 -35 200 -55 137 -22 377 -15 499 15 102 26 232
85 316 145 126 90 254 253 340 431 33 69 1331 3617 1353 3698 4 16 -14 17
-323 15 l-328 -3 -396 -1215 c-346 -1059 -399 -1215 -416 -1215 -17 0 -70 156
-416 1215 l-397 1215 -327 3 c-309 2 -327 1 -320 -15z"/>
<path d="M53510 2760 l0 -1570 305 0 305 0 0 1570 0 1570 -305 0 -305 0 0
-1570z"/>
</g>
</svg>
